<?xml version="1.0" encoding="utf-8"?>
<!-- Generator: Adobe Illustrator 15.1.0, SVG Export Plug-In . SVG Version: 6.00 Build 0)  -->
<!DOCTYPE svg PUBLIC "-//W3C//DTD SVG 1.1//EN" "http://www.w3.org/Graphics/SVG/1.1/DTD/svg11.dtd">
<svg version="1.1" id="Layer_1" xmlns="http://www.w3.org/2000/svg" xmlns:xlink="http://www.w3.org/1999/xlink" x="0px" y="0px"
	 width="262px" height="110.5px" viewBox="0 0 262 110.5" enable-background="new 0 0 262 110.5" xml:space="preserve">
<g id="logo">
	<g>
		<path fill="#FFFFFF" d="M40.723,84.167c-0.188,0-0.375-0.002-0.563-0.005c-7.894-0.145-14.617-3.296-18.93-8.875
			c-8.811-11.396-4.582-29.479,9.427-40.31c6.73-5.204,14.684-7.998,22.455-7.85c7.894,0.144,14.617,3.296,18.93,8.875
			c2.511,3.248,4.017,7.05,4.476,11.299c0.104,0.961-0.591,1.824-1.552,1.928c-0.967,0.102-1.824-0.591-1.928-1.552
			c-0.389-3.598-1.655-6.806-3.765-9.535c-3.651-4.722-9.413-7.392-16.225-7.516c-6.98-0.122-14.147,2.401-20.25,7.119
			C20.317,47.396,16.37,63.277,24,73.146c3.651,4.723,9.414,7.392,16.225,7.516c6.967,0.118,14.147-2.402,20.25-7.12
			c3.724-2.878,6.851-6.466,9.042-10.374c0.473-0.843,1.541-1.145,2.382-0.671c0.843,0.473,1.144,1.539,0.671,2.382
			c-2.418,4.314-5.86,8.27-9.954,11.434C56.048,81.389,48.295,84.167,40.723,84.167z"/>
	</g>
	<g>
		<path fill="#FFFFFF" d="M38.99,92.014c-0.24,0-0.479-0.002-0.719-0.006C28.222,91.824,19.669,87.82,14.189,80.73
			c-5.337-6.903-7.116-15.947-5.008-25.464l11.533-49.33c0.22-0.941,1.159-1.524,2.103-1.306c0.941,0.22,1.526,1.161,1.306,2.103
			l-11.528,49.31c-1.875,8.466-0.327,16.48,4.364,22.548c4.818,6.232,12.411,9.755,21.377,9.918
			c9.11,0.157,18.526-3.142,26.509-9.313c1.565-1.209,3.062-2.522,4.45-3.904c0.686-0.682,1.793-0.682,2.475,0.006
			c0.682,0.686,0.679,1.793-0.005,2.475c-1.492,1.484-3.1,2.896-4.779,4.194C58.582,88.46,48.668,92.014,38.99,92.014z"/>
	</g>
	<path fill="#FFFFFF" d="M84.099,55.989c2.096-9.505,0.316-18.536-5.015-25.431c-5.48-7.089-14.033-11.094-24.082-11.277
		c-9.925-0.185-20.103,3.386-28.714,10.044c-1.809,1.398-3.53,2.923-5.116,4.533c-0.678,0.688-0.67,1.797,0.018,2.475
		s1.796,0.669,2.475-0.018c1.477-1.499,3.079-2.919,4.764-4.221c7.983-6.172,17.384-9.484,26.509-9.313
		c8.967,0.164,16.559,3.686,21.377,9.918c4.441,5.745,6.06,13.236,4.63,21.197L57.5,53.894c-0.966,0-1.75,0.784-1.75,1.75
		c0,0.965,0.783,1.75,1.75,1.75h6.098c-1.363,3.912-4.006,7.52-7.628,10.319c-4.164,3.22-9.068,4.984-13.797,4.856
		c-4.589-0.082-8.465-1.872-10.913-5.038c-2.447-3.166-3.204-7.367-2.129-11.83c1.108-4.603,4.011-8.911,8.174-12.13
		c4.164-3.219,9.045-4.941,13.797-4.857c4.589,0.084,8.465,1.874,10.913,5.04c0.934,1.207,1.628,2.576,2.063,4.067
		c0.271,0.929,1.246,1.461,2.17,1.188c0.928-0.271,1.46-1.242,1.189-2.17c-0.558-1.914-1.451-3.673-2.654-5.228
		c-3.11-4.022-7.946-6.295-13.618-6.398c-5.535-0.098-11.21,1.883-16.001,5.588c-4.792,3.704-8.143,8.704-9.437,14.08
		c-1.328,5.516-0.347,10.768,2.763,14.79c3.11,4.022,7.946,6.295,13.618,6.397c0.134,0.003,0.268,0.005,0.402,0.005
		c5.4,0,10.925-1.978,15.6-5.593c4.508-3.485,7.704-8.094,9.151-13.09l12.906,0.002l-11.339,47.53
		c-0.224,0.94,0.356,1.884,1.296,2.108c0.137,0.031,0.273,0.048,0.408,0.048c0.792,0,1.509-0.54,1.701-1.345l11.86-49.715
		c0.001-0.006,0.002-0.012,0.003-0.018C84.097,56,84.098,55.995,84.099,55.989z"/>
</g>
<g id="Calque_6">
	<g>
		<path fill="#FFFFFF" d="M92.597,36.15h1.574l2.477,12.336h-1.811l-0.527-2.625h-3.943l-1.131,2.625h-2.007L92.597,36.15z
			 M93.851,43.681l-0.794-4.063l-1.75,4.063H93.851z"/>
		<path fill="#FFFFFF" d="M102.965,40.637l-0.86,1.71c-0.221-0.408-0.454-0.708-0.698-0.901c-0.244-0.193-0.472-0.29-0.684-0.29
			c-0.162,0-0.3,0.056-0.413,0.168c-0.113,0.112-0.169,0.238-0.169,0.377c0,0.134,0.045,0.268,0.135,0.402
			c0.086,0.134,0.345,0.394,0.779,0.78c0.691,0.615,1.146,1.142,1.365,1.581c0.219,0.439,0.329,0.916,0.329,1.43
			c0,0.677-0.224,1.316-0.672,1.92c-0.448,0.604-1.098,0.906-1.949,0.906c-0.491,0-0.938-0.123-1.341-0.369
			c-0.403-0.246-0.853-0.696-1.348-1.35l1.115-1.61c0.504,0.827,1.056,1.241,1.655,1.241c0.239,0,0.429-0.071,0.571-0.214
			c0.142-0.142,0.213-0.312,0.213-0.507c0-0.156-0.054-0.317-0.162-0.482c-0.108-0.165-0.403-0.46-0.885-0.885
			c-0.559-0.492-0.943-0.914-1.155-1.266c-0.297-0.492-0.446-1.012-0.446-1.56c0-0.766,0.233-1.389,0.699-1.87
			c0.466-0.48,1.017-0.721,1.652-0.721c0.446,0,0.87,0.131,1.271,0.394C102.366,39.784,102.699,40.156,102.965,40.637z"/>
		<path fill="#FFFFFF" d="M109.053,40.637l-0.86,1.71c-0.221-0.408-0.454-0.708-0.698-0.901c-0.244-0.193-0.472-0.29-0.684-0.29
			c-0.162,0-0.3,0.056-0.413,0.168c-0.113,0.112-0.169,0.238-0.169,0.377c0,0.134,0.045,0.268,0.135,0.402
			c0.086,0.134,0.345,0.394,0.779,0.78c0.691,0.615,1.146,1.142,1.365,1.581c0.219,0.439,0.329,0.916,0.329,1.43
			c0,0.677-0.224,1.316-0.672,1.92c-0.448,0.604-1.098,0.906-1.949,0.906c-0.491,0-0.938-0.123-1.341-0.369s-0.853-0.696-1.348-1.35
			l1.115-1.61c0.504,0.827,1.056,1.241,1.655,1.241c0.239,0,0.429-0.071,0.571-0.214c0.142-0.142,0.213-0.312,0.213-0.507
			c0-0.156-0.054-0.317-0.162-0.482c-0.108-0.165-0.403-0.46-0.885-0.885c-0.559-0.492-0.943-0.914-1.155-1.266
			c-0.297-0.492-0.446-1.012-0.446-1.56c0-0.766,0.233-1.389,0.699-1.87c0.466-0.48,1.017-0.721,1.652-0.721
			c0.446,0,0.87,0.131,1.271,0.394C108.454,39.784,108.787,40.156,109.053,40.637z"/>
		<path fill="#FFFFFF" d="M114.424,39.127c0.653,0,1.247,0.188,1.78,0.562c0.533,0.374,0.949,0.906,1.247,1.593
			c0.298,0.687,0.446,1.459,0.446,2.314c0,1.42-0.408,2.629-1.223,3.627s-1.824,1.497-3.027,1.497c-1.045,0-1.878-0.393-2.5-1.178
			s-0.933-1.813-0.933-3.082c0-1.532,0.421-2.804,1.264-3.815C112.321,39.634,113.303,39.127,114.424,39.127z M114.299,41.249
			c-0.737,0-1.303,0.329-1.696,0.985c-0.394,0.657-0.59,1.369-0.59,2.134c0,0.682,0.161,1.231,0.482,1.648
			c0.321,0.417,0.75,0.625,1.285,0.625c0.76,0,1.339-0.317,1.737-0.952c0.398-0.634,0.597-1.36,0.597-2.176
			c0-0.671-0.168-1.216-0.506-1.635C115.271,41.458,114.834,41.249,114.299,41.249z"/>
		<path fill="#FFFFFF" d="M126.684,41.248l-1.526,1.031c-0.432-0.681-1.013-1.021-1.742-1.021c-0.491,0-0.925,0.13-1.303,0.389
			c-0.378,0.26-0.68,0.635-0.905,1.126c-0.225,0.491-0.337,1.011-0.337,1.558c0,0.703,0.178,1.267,0.533,1.691
			c0.356,0.424,0.844,0.636,1.466,0.636c0.859,0,1.519-0.36,1.979-1.08l1.418,1.244c-0.401,0.594-0.9,1.059-1.498,1.395
			c-0.597,0.336-1.263,0.504-1.998,0.504c-1.145,0-2.047-0.391-2.708-1.174c-0.66-0.782-0.99-1.817-0.99-3.103
			c0-1.47,0.408-2.724,1.224-3.761c0.815-1.037,1.866-1.556,3.15-1.556C124.893,39.127,125.972,39.834,126.684,41.248z"/>
		<path fill="#FFFFFF" d="M128.59,39.362h1.787l-0.991,9.124h-1.8L128.59,39.362z M129.83,35.63c0.306,0,0.569,0.135,0.787,0.406
			c0.219,0.271,0.328,0.597,0.328,0.977c0,0.38-0.109,0.706-0.328,0.977c-0.218,0.271-0.48,0.407-0.787,0.407
			s-0.569-0.135-0.788-0.407c-0.218-0.271-0.328-0.597-0.328-0.977c0-0.38,0.109-0.706,0.328-0.977
			C129.261,35.766,129.523,35.63,129.83,35.63z"/>
		<path fill="#FFFFFF" d="M137.55,39.362h1.808l-1.025,9.124h-1.786l0.108-0.98c-0.393,0.453-0.76,0.768-1.1,0.947
			c-0.341,0.179-0.724,0.268-1.146,0.268c-0.975,0-1.749-0.444-2.323-1.333c-0.575-0.889-0.862-1.923-0.862-3.103
			c0-0.9,0.185-1.757,0.553-2.57c0.367-0.813,0.861-1.448,1.48-1.904c0.62-0.456,1.27-0.684,1.945-0.684
			c0.455,0,0.874,0.129,1.258,0.389c0.385,0.259,0.7,0.636,0.95,1.131L137.55,39.362z M134.841,46.725
			c0.444,0,0.831-0.123,1.162-0.368s0.608-0.63,0.833-1.155c0.225-0.524,0.337-1.061,0.337-1.607c0-0.723-0.169-1.304-0.507-1.744
			s-0.783-0.66-1.336-0.66c-0.645,0-1.189,0.293-1.639,0.881c-0.448,0.587-0.674,1.344-0.674,2.271c0,0.716,0.17,1.292,0.51,1.729
			C133.868,46.508,134.307,46.725,134.841,46.725z"/>
		<path fill="#FFFFFF" d="M141.646,35.974h1.793l-0.371,3.388h1.143l-0.217,1.929h-1.137l-0.789,7.195h-1.801l0.793-7.195h-0.886
			l0.21-1.929h0.889L141.646,35.974z"/>
		<path fill="#FFFFFF" d="M145.191,39.362h1.787l-0.99,9.124h-1.801L145.191,39.362z M146.432,35.63
			c0.307,0,0.568,0.135,0.786,0.406c0.22,0.271,0.328,0.597,0.328,0.977c0,0.38-0.108,0.706-0.328,0.977
			c-0.218,0.271-0.479,0.407-0.786,0.407s-0.568-0.135-0.787-0.407c-0.22-0.271-0.328-0.597-0.328-0.977
			c0-0.38,0.108-0.706,0.328-0.977C145.861,35.766,146.125,35.63,146.432,35.63z"/>
		<path fill="#FFFFFF" d="M152.061,39.127c0.651,0,1.246,0.188,1.779,0.562c0.533,0.375,0.949,0.906,1.246,1.593
			c0.298,0.688,0.446,1.459,0.446,2.314c0,1.42-0.408,2.629-1.224,3.627c-0.814,0.998-1.824,1.497-3.026,1.497
			c-1.046,0-1.88-0.393-2.5-1.178c-0.622-0.786-0.933-1.813-0.933-3.082c0-1.532,0.42-2.804,1.264-3.815
			C149.955,39.633,150.938,39.127,152.061,39.127z M151.934,41.249c-0.736,0-1.303,0.329-1.695,0.985
			c-0.395,0.657-0.592,1.369-0.592,2.134c0,0.682,0.162,1.231,0.482,1.648c0.322,0.417,0.75,0.625,1.285,0.625
			c0.76,0,1.339-0.317,1.736-0.952c0.397-0.634,0.598-1.36,0.598-2.176c0-0.671-0.169-1.216-0.506-1.635
			C152.904,41.458,152.469,41.249,151.934,41.249z"/>
		<path fill="#FFFFFF" d="M157.609,39.362h1.801l-0.102,0.926c0.688-0.773,1.406-1.161,2.15-1.161c0.637,0,1.156,0.25,1.563,0.751
			s0.608,1.132,0.608,1.893c0,0.358-0.038,0.893-0.114,1.603l-0.563,5.111h-1.8l0.549-4.99c0.054-0.514,0.08-0.9,0.08-1.157
			c0-0.369-0.084-0.653-0.254-0.851c-0.17-0.198-0.409-0.298-0.723-0.298c-0.303,0-0.604,0.13-0.908,0.39
			c-0.304,0.26-0.535,0.621-0.699,1.082c-0.161,0.461-0.312,1.327-0.446,2.596l-0.347,3.229h-1.801L157.609,39.362z"/>
		<path fill="#FFFFFF" d="M175.572,35.84h1.806l-1.412,12.646h-1.786l0.108-0.98c-0.394,0.453-0.759,0.768-1.101,0.947
			c-0.34,0.179-0.723,0.268-1.146,0.268c-0.974,0-1.749-0.444-2.323-1.333c-0.574-0.889-0.863-1.923-0.863-3.103
			c0-0.9,0.186-1.757,0.554-2.57c0.366-0.813,0.86-1.448,1.481-1.904c0.619-0.456,1.269-0.684,1.944-0.684
			c0.455,0,0.874,0.129,1.258,0.389c0.384,0.259,0.7,0.636,0.95,1.131L175.572,35.84z M172.473,46.725
			c0.443,0,0.83-0.123,1.16-0.368c0.331-0.246,0.607-0.631,0.832-1.156c0.225-0.525,0.336-1.061,0.336-1.608
			c0-0.722-0.169-1.303-0.506-1.743s-0.781-0.66-1.334-0.66c-0.643,0-1.188,0.293-1.636,0.881c-0.448,0.587-0.673,1.344-0.673,2.272
			c0,0.716,0.171,1.292,0.51,1.728C171.502,46.507,171.938,46.725,172.473,46.725z"/>
		<path fill="#FFFFFF" d="M183.424,45.816l1.588,1.021c-0.354,0.581-0.826,1.04-1.414,1.377c-0.589,0.337-1.24,0.506-1.957,0.506
			c-1.121,0-2.006-0.391-2.652-1.174c-0.645-0.782-0.969-1.822-0.969-3.119c0-1.481,0.403-2.735,1.213-3.761
			c0.809-1.026,1.785-1.539,2.929-1.539c0.688,0,1.303,0.188,1.842,0.562c0.538,0.375,0.963,0.92,1.272,1.635
			c0.312,0.716,0.467,1.493,0.467,2.331c0,0.263-0.021,0.57-0.067,0.923h-5.864c0.019,0.634,0.187,1.14,0.504,1.516
			c0.316,0.376,0.756,0.564,1.313,0.564C182.303,46.658,182.9,46.377,183.424,45.816z M183.884,42.934
			c-0.136-0.559-0.36-0.982-0.676-1.27s-0.696-0.432-1.144-0.432c-0.44,0-0.84,0.148-1.194,0.444
			c-0.356,0.296-0.626,0.716-0.812,1.258H183.884z"/>
		<path fill="#FFFFFF" d="M191.803,40.637l-0.861,1.71c-0.221-0.408-0.453-0.708-0.696-0.901c-0.244-0.193-0.472-0.29-0.685-0.29
			c-0.162,0-0.301,0.056-0.414,0.168c-0.111,0.112-0.168,0.238-0.168,0.377c0,0.134,0.045,0.268,0.135,0.402
			c0.086,0.134,0.346,0.394,0.779,0.78c0.69,0.615,1.146,1.142,1.364,1.581c0.22,0.439,0.328,0.916,0.328,1.43
			c0,0.677-0.224,1.316-0.672,1.92s-1.099,0.906-1.949,0.906c-0.491,0-0.938-0.123-1.341-0.369s-0.854-0.696-1.35-1.35l1.115-1.61
			c0.504,0.827,1.057,1.241,1.655,1.241c0.238,0,0.429-0.071,0.571-0.214c0.142-0.142,0.213-0.312,0.213-0.507
			c0-0.156-0.055-0.317-0.162-0.482c-0.107-0.165-0.402-0.46-0.887-0.885c-0.559-0.492-0.942-0.914-1.154-1.266
			c-0.297-0.492-0.445-1.012-0.445-1.56c0-0.766,0.232-1.389,0.699-1.87c0.467-0.48,1.018-0.721,1.65-0.721
			c0.447,0,0.869,0.131,1.271,0.394C191.202,39.784,191.536,40.156,191.803,40.637z"/>
		<path fill="#FFFFFF" d="M201.63,36.15h1.574l2.478,12.336h-1.813l-0.525-2.625H199.4l-1.131,2.625h-2.008L201.63,36.15z
			 M202.884,43.681l-0.795-4.063l-1.75,4.063H202.884z"/>
		<path fill="#FFFFFF" d="M207.977,39.362h1.799l-0.102,0.926c0.689-0.773,1.407-1.161,2.151-1.161c0.636,0,1.155,0.25,1.563,0.751
			c0.404,0.501,0.607,1.132,0.607,1.893c0,0.358-0.038,0.893-0.115,1.603l-0.563,5.111h-1.801l0.549-4.99
			c0.055-0.514,0.082-0.9,0.082-1.157c0-0.369-0.086-0.653-0.254-0.851c-0.17-0.198-0.41-0.298-0.724-0.298
			c-0.303,0-0.604,0.13-0.907,0.39c-0.305,0.26-0.537,0.621-0.699,1.082s-0.313,1.327-0.447,2.596l-0.346,3.229h-1.801
			L207.977,39.362z"/>
		<path fill="#FFFFFF" d="M222.986,41.248l-1.525,1.031c-0.432-0.681-1.014-1.021-1.742-1.021c-0.49,0-0.925,0.13-1.303,0.389
			c-0.378,0.26-0.68,0.635-0.904,1.126c-0.226,0.491-0.339,1.011-0.339,1.558c0,0.703,0.179,1.267,0.534,1.691
			s0.844,0.636,1.465,0.636c0.86,0,1.52-0.36,1.979-1.08l1.418,1.244c-0.399,0.594-0.898,1.059-1.496,1.395
			s-1.264,0.504-1.997,0.504c-1.146,0-2.048-0.391-2.708-1.174c-0.66-0.782-0.99-1.817-0.99-3.103c0-1.47,0.408-2.724,1.225-3.761
			c0.815-1.037,1.864-1.556,3.149-1.556C221.195,39.127,222.275,39.834,222.986,41.248z"/>
		<path fill="#FFFFFF" d="M224.895,39.362h1.787l-0.99,9.124h-1.801L224.895,39.362z M226.133,35.63
			c0.307,0,0.569,0.135,0.787,0.406c0.219,0.271,0.328,0.597,0.328,0.977c0,0.38-0.109,0.706-0.328,0.977
			c-0.218,0.271-0.48,0.407-0.787,0.407c-0.306,0-0.568-0.135-0.787-0.407c-0.219-0.271-0.326-0.597-0.326-0.977
			c0-0.38,0.107-0.706,0.326-0.977C225.564,35.766,225.827,35.63,226.133,35.63z"/>
		<path fill="#FFFFFF" d="M232.957,45.816l1.588,1.021c-0.355,0.581-0.827,1.04-1.415,1.377s-1.239,0.506-1.956,0.506
			c-1.121,0-2.006-0.391-2.652-1.174c-0.646-0.782-0.969-1.822-0.969-3.119c0-1.481,0.403-2.735,1.213-3.761
			c0.809-1.026,1.784-1.539,2.928-1.539c0.689,0,1.304,0.188,1.843,0.562c0.538,0.375,0.963,0.92,1.272,1.635
			c0.312,0.716,0.467,1.493,0.467,2.331c0,0.263-0.022,0.57-0.067,0.923h-5.864c0.018,0.634,0.186,1.14,0.504,1.516
			c0.316,0.376,0.756,0.564,1.313,0.564C231.836,46.658,232.436,46.377,232.957,45.816z M233.417,42.934
			c-0.136-0.559-0.36-0.982-0.676-1.27s-0.696-0.432-1.144-0.432c-0.44,0-0.84,0.148-1.195,0.444
			c-0.355,0.296-0.625,0.716-0.811,1.258H233.417z"/>
		<path fill="#FFFFFF" d="M237.313,39.362h1.801l-0.102,0.926c0.688-0.773,1.406-1.161,2.15-1.161c0.636,0,1.156,0.25,1.563,0.751
			c0.405,0.501,0.608,1.132,0.608,1.893c0,0.358-0.038,0.893-0.115,1.603l-0.563,5.111h-1.799l0.549-4.99
			c0.054-0.514,0.08-0.9,0.08-1.157c0-0.369-0.084-0.653-0.254-0.851c-0.17-0.198-0.41-0.298-0.723-0.298
			c-0.303,0-0.605,0.13-0.908,0.39c-0.304,0.26-0.535,0.621-0.699,1.082c-0.162,0.461-0.312,1.327-0.446,2.596l-0.347,3.229h-1.801
			L237.313,39.362z"/>
		<path fill="#FFFFFF" d="M249.641,40.637l-0.861,1.71c-0.221-0.408-0.453-0.708-0.696-0.901c-0.244-0.193-0.472-0.29-0.685-0.29
			c-0.162,0-0.301,0.056-0.414,0.168c-0.111,0.112-0.168,0.238-0.168,0.377c0,0.134,0.045,0.268,0.136,0.402
			c0.085,0.134,0.345,0.394,0.778,0.78c0.69,0.615,1.146,1.142,1.365,1.581c0.219,0.439,0.327,0.916,0.327,1.43
			c0,0.677-0.224,1.316-0.672,1.92s-1.099,0.906-1.948,0.906c-0.492,0-0.939-0.123-1.342-0.369s-0.854-0.696-1.35-1.35l1.115-1.61
			c0.504,0.827,1.057,1.241,1.655,1.241c0.238,0,0.429-0.071,0.571-0.214c0.143-0.142,0.213-0.312,0.213-0.507
			c0-0.156-0.055-0.317-0.162-0.482c-0.107-0.165-0.402-0.46-0.886-0.885c-0.56-0.492-0.943-0.914-1.155-1.266
			c-0.297-0.492-0.445-1.012-0.445-1.56c0-0.766,0.232-1.389,0.699-1.87c0.467-0.48,1.018-0.721,1.651-0.721
			c0.446,0,0.868,0.131,1.271,0.394C249.04,39.784,249.374,40.156,249.641,40.637z"/>
	</g>
	<g>
		<path fill="#FFFFFF" d="M17.473,92.598h1.915l3.011,11.646h-2.202l-0.641-2.479H14.76l-1.375,2.479h-2.44L17.473,92.598z
			 M18.998,99.707l-0.966-3.836l-2.128,3.836H18.998z"/>
		<path fill="#FFFFFF" d="M25.398,92.305h2.189l-1.693,11.939h-2.189L25.398,92.305z"/>
		<path fill="#FFFFFF" d="M29.246,95.629h2.171l-0.624,4.402c-0.066,0.486-0.099,0.851-0.099,1.093c0,0.381,0.137,0.7,0.411,0.958
			c0.274,0.259,0.631,0.389,1.069,0.389c0.565,0,1-0.166,1.304-0.498c0.305-0.334,0.528-1.009,0.671-2.027l0.612-4.315h2.172
			l-0.641,4.634c-0.148,1.045-0.397,1.854-0.746,2.426c-0.349,0.574-0.811,1.013-1.388,1.318c-0.577,0.307-1.255,0.459-2.035,0.459
			c-1.099,0-1.972-0.305-2.62-0.915c-0.648-0.608-0.972-1.397-0.972-2.364c0-0.59,0.071-1.352,0.215-2.279L29.246,95.629z"/>
		<path fill="#FFFFFF" d="M39.32,95.629h2.198l-0.134,0.941c0.794-0.775,1.684-1.163,2.669-1.163c0.4,0,0.773,0.065,1.121,0.196
			c0.348,0.133,0.629,0.301,0.846,0.506s0.401,0.492,0.555,0.858c0.41-0.51,0.892-0.897,1.445-1.163
			c0.553-0.266,1.127-0.397,1.725-0.397c0.75,0,1.372,0.241,1.864,0.726c0.493,0.484,0.739,1.112,0.739,1.885
			c0,0.291-0.027,0.651-0.082,1.086l-0.737,5.142H49.34l0.627-4.427c0.082-0.596,0.124-0.992,0.124-1.188
			c0-0.406-0.106-0.715-0.317-0.926c-0.212-0.212-0.51-0.316-0.895-0.316c-0.374,0-0.752,0.129-1.134,0.385
			c-0.382,0.256-0.674,0.597-0.874,1.021c-0.201,0.426-0.37,1.155-0.507,2.19l-0.462,3.261h-2.189l0.665-4.688
			c0.055-0.382,0.082-0.707,0.082-0.978c0-0.376-0.113-0.675-0.338-0.894c-0.226-0.222-0.523-0.33-0.892-0.33
			c-0.352,0-0.714,0.117-1.085,0.353c-0.372,0.235-0.661,0.556-0.867,0.959s-0.368,1.024-0.483,1.858l-0.504,3.719h-2.189
			L39.32,95.629z"/>
		<path fill="#FFFFFF" d="M55.137,95.629h2.189l-0.124,0.874c0.839-0.729,1.711-1.096,2.616-1.096c0.773,0,1.406,0.235,1.9,0.71
			c0.494,0.473,0.74,1.068,0.74,1.787c0,0.338-0.046,0.843-0.14,1.514l-0.684,4.826h-2.189l0.668-4.711
			c0.066-0.486,0.099-0.852,0.099-1.094c0-0.349-0.103-0.615-0.309-0.804c-0.206-0.188-0.499-0.28-0.878-0.28
			c-0.369,0-0.737,0.123-1.105,0.367c-0.368,0.245-0.651,0.586-0.85,1.021c-0.198,0.436-0.379,1.252-0.544,2.449l-0.421,3.05h-2.189
			L55.137,95.629z"/>
		<path fill="#FFFFFF" d="M64.938,95.629h2.173l-1.205,8.615h-2.189L64.938,95.629z M66.445,92.105c0.372,0,0.691,0.127,0.957,0.384
			c0.266,0.257,0.398,0.563,0.398,0.923c0,0.359-0.133,0.666-0.398,0.923c-0.266,0.256-0.585,0.384-0.957,0.384
			c-0.373,0-0.692-0.128-0.958-0.384c-0.266-0.257-0.398-0.563-0.398-0.923c0-0.36,0.133-0.666,0.398-0.923
			C65.753,92.232,66.073,92.105,66.445,92.105z"/>
	</g>
	<g>
		<path fill="#FFFFFF" d="M88.627,65.334V53.842h2.383c1.719,0,2.966,0.138,3.742,0.414c1.114,0.391,1.985,1.068,2.613,2.031
			c0.627,0.964,0.941,2.112,0.941,3.445c0,1.151-0.249,2.164-0.746,3.039c-0.498,0.875-1.144,1.521-1.938,1.938
			c-0.794,0.417-1.908,0.625-3.34,0.625H88.627z M89.729,64.248h1.328c1.588,0,2.69-0.099,3.305-0.297
			c0.864-0.281,1.544-0.787,2.039-1.518c0.495-0.731,0.742-1.625,0.742-2.682c0-1.108-0.269-2.056-0.805-2.842
			c-0.537-0.785-1.284-1.324-2.242-1.615c-0.719-0.219-1.904-0.328-3.555-0.328h-0.813V64.248z"/>
		<path fill="#FFFFFF" d="M100.572,53.842h1.148v6.938c0,0.823,0.016,1.336,0.047,1.539c0.057,0.453,0.19,0.832,0.398,1.137
			c0.208,0.305,0.528,0.56,0.961,0.766c0.432,0.206,0.867,0.309,1.305,0.309c0.38,0,0.745-0.081,1.094-0.242
			c0.349-0.161,0.641-0.386,0.875-0.672s0.406-0.633,0.516-1.039c0.078-0.292,0.117-0.891,0.117-1.797v-6.938h1.148v6.938
			c0,1.026-0.101,1.855-0.301,2.488c-0.201,0.633-0.602,1.184-1.203,1.652s-1.33,0.703-2.184,0.703
			c-0.927,0-1.722-0.222-2.383-0.664c-0.662-0.442-1.104-1.028-1.328-1.758c-0.141-0.448-0.211-1.255-0.211-2.422V53.842z"/>
		<path fill="#FFFFFF" d="M115.439,53.842h1.148v10.383h4.422v1.109h-5.57V53.842z"/>
		<path fill="#FFFFFF" d="M121.924,53.842h1.321l2.94,4.74l2.895-4.74h1.328l-3.641,6v5.492h-1.133v-5.492L121.924,53.842z"/>
		<path fill="#FFFFFF" d="M143.002,55.975l-0.906,0.695c-0.5-0.65-1.101-1.145-1.801-1.48s-1.47-0.504-2.309-0.504
			c-0.917,0-1.766,0.22-2.547,0.66c-0.781,0.44-1.387,1.031-1.816,1.773s-0.645,1.577-0.645,2.504c0,1.401,0.48,2.57,1.441,3.508
			s2.173,1.406,3.637,1.406c1.609,0,2.956-0.63,4.039-1.891l0.906,0.688c-0.573,0.729-1.288,1.293-2.145,1.691
			s-1.813,0.598-2.871,0.598c-2.011,0-3.597-0.669-4.758-2.008c-0.974-1.13-1.461-2.495-1.461-4.094c0-1.682,0.59-3.098,1.77-4.246
			s2.657-1.723,4.434-1.723c1.073,0,2.042,0.212,2.906,0.637C141.741,54.614,142.45,55.209,143.002,55.975z"/>
		<path fill="#FFFFFF" d="M145.314,53.842h6.586v1.125h-5.438v3.602h5.391v1.125h-5.391v4.516h5.391v1.125h-6.539V53.842z
			 M149.205,50.529h1.68l-2.305,2.406h-1.078L149.205,50.529z"/>
		<path fill="#FFFFFF" d="M153.893,53.842h6.586v1.125h-5.438v3.602h5.391v1.125h-5.391v4.516h5.391v1.125h-6.539V53.842z"/>
		<path fill="#FFFFFF" d="M166.893,53.842h5.758v1.125h-4.609v3.602h4.609v1.125h-4.609v5.641h-1.148V53.842z"/>
		<path fill="#FFFFFF" d="M174.713,53.842h2.289c1.276,0,2.141,0.052,2.594,0.156c0.683,0.157,1.237,0.492,1.664,1.005
			s0.641,1.146,0.641,1.897c0,0.626-0.147,1.176-0.441,1.65s-0.715,0.833-1.262,1.076c-0.547,0.242-1.302,0.366-2.266,0.371
			l4.133,5.336h-1.421l-4.133-5.336h-0.649v5.336h-1.148V53.842z M175.861,54.967v3.906l1.979,0.016
			c0.767,0,1.334-0.072,1.702-0.219c0.368-0.146,0.654-0.379,0.861-0.699c0.205-0.32,0.309-0.678,0.309-1.074
			c0-0.385-0.104-0.735-0.313-1.051c-0.209-0.315-0.483-0.54-0.822-0.676c-0.339-0.135-0.902-0.203-1.69-0.203H175.861z"/>
		<path fill="#FFFFFF" d="M189.057,53.842l5.359,11.492h-1.24l-1.808-3.781h-4.951l-1.79,3.781h-1.281l5.43-11.492H189.057z
			 M188.912,56.283l-1.97,4.16h3.929L188.912,56.283z"/>
		<path fill="#FFFFFF" d="M196.205,65.334V53.842h0.25l7.648,8.81v-8.81h1.133v11.492h-0.258l-7.586-8.702v8.702H196.205z"/>
		<path fill="#FFFFFF" d="M218.736,55.975l-0.906,0.695c-0.5-0.65-1.101-1.145-1.801-1.48s-1.47-0.504-2.309-0.504
			c-0.917,0-1.766,0.22-2.547,0.66c-0.781,0.44-1.387,1.031-1.816,1.773s-0.645,1.577-0.645,2.504c0,1.401,0.48,2.57,1.441,3.508
			s2.173,1.406,3.637,1.406c1.609,0,2.956-0.63,4.039-1.891l0.906,0.688c-0.573,0.729-1.288,1.293-2.145,1.691
			s-1.813,0.598-2.871,0.598c-2.011,0-3.597-0.669-4.758-2.008c-0.974-1.13-1.461-2.495-1.461-4.094c0-1.682,0.59-3.098,1.77-4.246
			s2.657-1.723,4.434-1.723c1.073,0,2.042,0.212,2.906,0.637C217.476,54.614,218.185,55.209,218.736,55.975z M212.963,65.334h0.688
			l-0.133,0.93c0.12-0.016,0.219-0.023,0.297-0.023c0.255,0,0.469,0.079,0.641,0.238s0.258,0.358,0.258,0.598
			c0,0.344-0.156,0.636-0.469,0.875s-0.753,0.359-1.32,0.359c-0.464,0-0.898-0.078-1.305-0.234l0.172-0.539
			c0.333,0.104,0.646,0.156,0.938,0.156c0.391,0,0.664-0.048,0.82-0.145s0.234-0.218,0.234-0.363c0-0.089-0.043-0.167-0.129-0.234
			s-0.204-0.102-0.355-0.102c-0.125,0-0.308,0.023-0.547,0.07L212.963,65.334z"/>
		<path fill="#FFFFFF" d="M225.736,53.842l5.359,11.492h-1.24l-1.808-3.781h-4.951l-1.79,3.781h-1.281l5.43-11.492H225.736z
			 M225.592,56.283l-1.97,4.16h3.929L225.592,56.283z"/>
		<path fill="#FFFFFF" d="M232.713,53.842h1.148v11.492h-1.148V53.842z"/>
		<path fill="#FFFFFF" d="M235.307,63.193l0.977-0.586c0.688,1.266,1.481,1.898,2.383,1.898c0.386,0,0.747-0.09,1.086-0.27
			s0.597-0.421,0.773-0.723s0.266-0.622,0.266-0.961c0-0.386-0.13-0.763-0.391-1.133c-0.359-0.511-1.016-1.125-1.969-1.844
			c-0.958-0.724-1.555-1.247-1.789-1.57c-0.406-0.541-0.609-1.127-0.609-1.758c0-0.5,0.12-0.956,0.359-1.367
			c0.239-0.411,0.577-0.735,1.012-0.973c0.435-0.237,0.907-0.355,1.418-0.355c0.542,0,1.048,0.134,1.52,0.402
			c0.472,0.269,0.97,0.762,1.496,1.48l-0.938,0.711c-0.433-0.573-0.801-0.95-1.105-1.133c-0.305-0.182-0.637-0.273-0.996-0.273
			c-0.464,0-0.843,0.141-1.137,0.422s-0.441,0.628-0.441,1.039c0,0.25,0.052,0.492,0.156,0.727s0.294,0.49,0.57,0.766
			c0.151,0.146,0.646,0.529,1.484,1.148c0.995,0.734,1.677,1.388,2.047,1.961s0.555,1.148,0.555,1.727
			c0,0.833-0.316,1.558-0.949,2.172s-1.402,0.922-2.309,0.922c-0.698,0-1.331-0.187-1.898-0.559S235.786,64.068,235.307,63.193z"/>
		<path fill="#FFFFFF" d="M99.33,75.175l-0.906,0.695c-0.5-0.651-1.101-1.145-1.801-1.48c-0.701-0.336-1.47-0.504-2.309-0.504
			c-0.917,0-1.766,0.22-2.547,0.66s-1.387,1.031-1.816,1.773s-0.645,1.577-0.645,2.504c0,1.401,0.48,2.57,1.441,3.508
			s2.173,1.406,3.637,1.406c1.609,0,2.956-0.63,4.039-1.891l0.906,0.688c-0.573,0.729-1.288,1.293-2.145,1.691
			c-0.857,0.398-1.814,0.598-2.871,0.598c-2.011,0-3.597-0.669-4.758-2.008c-0.974-1.13-1.461-2.495-1.461-4.094
			c0-1.683,0.59-3.098,1.77-4.246s2.657-1.723,4.434-1.723c1.073,0,2.042,0.212,2.906,0.637
			C98.069,73.814,98.778,74.409,99.33,75.175z"/>
		<path fill="#FFFFFF" d="M101.619,73.042h1.148v4.82h5.852v-4.82h1.148v11.492h-1.148v-5.547h-5.852v5.547h-1.148V73.042z"/>
		<path fill="#FFFFFF" d="M117.26,73.042l5.359,11.492h-1.24l-1.808-3.781h-4.951l-1.79,3.781h-1.281l5.43-11.492H117.26z
			 M117.115,75.483l-1.969,4.16h3.929L117.115,75.483z"/>
		<path fill="#FFFFFF" d="M124.463,73.042h2.289c1.276,0,2.141,0.052,2.594,0.156c0.683,0.157,1.237,0.491,1.664,1.005
			s0.641,1.146,0.641,1.897c0,0.626-0.147,1.176-0.441,1.65s-0.715,0.833-1.262,1.075c-0.547,0.243-1.302,0.367-2.266,0.372
			l4.133,5.336h-1.421l-4.133-5.336h-0.649v5.336h-1.148V73.042z M125.611,74.167v3.906l1.979,0.016
			c0.767,0,1.334-0.073,1.702-0.219s0.654-0.379,0.861-0.699c0.205-0.32,0.309-0.679,0.309-1.074c0-0.386-0.104-0.735-0.313-1.051
			c-0.209-0.315-0.483-0.54-0.822-0.676s-0.902-0.203-1.69-0.203H125.611z"/>
		<path fill="#FFFFFF" d="M134.111,73.042h1.148v10.383h4.422v1.109h-5.57V73.042z"/>
		<path fill="#FFFFFF" d="M141.51,73.042h6.586v1.125h-5.438v3.602h5.391v1.125h-5.391v4.516h5.391v1.125h-6.539V73.042z"/>
		<path fill="#FFFFFF" d="M148.893,82.394l0.977-0.586c0.688,1.266,1.481,1.898,2.383,1.898c0.386,0,0.747-0.09,1.086-0.27
			s0.597-0.421,0.773-0.723s0.266-0.622,0.266-0.961c0-0.386-0.13-0.763-0.391-1.133c-0.359-0.511-1.016-1.125-1.969-1.844
			c-0.958-0.724-1.555-1.247-1.789-1.57c-0.406-0.542-0.609-1.128-0.609-1.758c0-0.5,0.12-0.956,0.359-1.367
			s0.577-0.735,1.012-0.973s0.907-0.355,1.418-0.355c0.542,0,1.048,0.134,1.52,0.402s0.97,0.762,1.496,1.48l-0.938,0.711
			c-0.433-0.573-0.801-0.95-1.105-1.133s-0.637-0.273-0.996-0.273c-0.464,0-0.843,0.141-1.137,0.422s-0.441,0.628-0.441,1.039
			c0,0.25,0.052,0.492,0.156,0.727s0.294,0.489,0.57,0.766c0.151,0.146,0.646,0.528,1.484,1.148
			c0.995,0.734,1.677,1.388,2.047,1.961s0.555,1.148,0.555,1.727c0,0.833-0.316,1.558-0.949,2.172s-1.402,0.922-2.309,0.922
			c-0.698,0-1.331-0.187-1.898-0.559S149.372,83.269,148.893,82.394z"/>
		<path fill="#FFFFFF" d="M162.479,84.534V73.042h2.383c1.719,0,2.966,0.138,3.742,0.414c1.114,0.391,1.985,1.067,2.613,2.031
			s0.941,2.112,0.941,3.445c0,1.151-0.249,2.164-0.746,3.039s-1.144,1.521-1.938,1.938s-1.907,0.625-3.34,0.625H162.479z
			 M163.58,83.448h1.328c1.589,0,2.69-0.099,3.305-0.297c0.864-0.28,1.544-0.787,2.039-1.518c0.495-0.731,0.742-1.625,0.742-2.682
			c0-1.108-0.269-2.056-0.805-2.842c-0.536-0.785-1.284-1.324-2.242-1.615c-0.719-0.219-1.903-0.328-3.555-0.328h-0.813V83.448z"/>
		<path fill="#FFFFFF" d="M174.393,73.042h6.586v1.125h-5.438v3.602h5.391v1.125h-5.391v4.516h5.391v1.125h-6.539V73.042z"/>
		<path fill="#FFFFFF" d="M198.479,74.972l-0.891,0.844c-0.641-0.63-1.343-1.108-2.105-1.434s-1.507-0.488-2.23-0.488
			c-0.901,0-1.759,0.222-2.574,0.664s-1.446,1.043-1.895,1.801s-0.672,1.559-0.672,2.402c0,0.864,0.231,1.687,0.695,2.465
			s1.104,1.391,1.922,1.836s1.714,0.668,2.688,0.668c1.183,0,2.183-0.333,3-1s1.302-1.531,1.453-2.594h-3.664v-1.109h4.953
			c-0.011,1.776-0.538,3.187-1.582,4.23s-2.441,1.566-4.191,1.566c-2.125,0-3.808-0.724-5.047-2.172
			c-0.953-1.114-1.43-2.403-1.43-3.867c0-1.089,0.273-2.102,0.82-3.039s1.297-1.671,2.25-2.199s2.031-0.793,3.234-0.793
			c0.974,0,1.891,0.176,2.75,0.527S197.661,74.195,198.479,74.972z"/>
		<path fill="#FFFFFF" d="M206.041,73.042l5.359,11.492h-1.24l-1.808-3.781h-4.951l-1.79,3.781h-1.281l5.43-11.492H206.041z
			 M205.896,75.483l-1.97,4.16h3.929L205.896,75.483z"/>
		<path fill="#FFFFFF" d="M213.221,73.042h1.148v6.938c0,0.823,0.016,1.336,0.047,1.539c0.058,0.453,0.19,0.832,0.398,1.137
			s0.528,0.56,0.961,0.766s0.867,0.309,1.305,0.309c0.38,0,0.745-0.081,1.094-0.242s0.641-0.386,0.875-0.672
			s0.406-0.633,0.516-1.039c0.078-0.292,0.117-0.891,0.117-1.797v-6.938h1.148v6.938c0,1.026-0.101,1.855-0.301,2.488
			s-0.602,1.184-1.203,1.652s-1.329,0.703-2.184,0.703c-0.927,0-1.722-0.222-2.383-0.664s-1.104-1.028-1.328-1.758
			c-0.141-0.448-0.211-1.255-0.211-2.422V73.042z"/>
		<path fill="#FFFFFF" d="M223.658,73.042h1.148v10.383h4.422v1.109h-5.57V73.042z"/>
		<path fill="#FFFFFF" d="M231.049,73.042h1.148v10.383h4.422v1.109h-5.57V73.042z"/>
		<path fill="#FFFFFF" d="M238.447,73.042h6.586v1.125h-5.438v3.602h5.391v1.125h-5.391v4.516h5.391v1.125h-6.539V73.042z"/>
		<path fill="#FFFFFF" d="M88.627,103.734V92.242h2.383c1.719,0,2.966,0.138,3.742,0.414c1.114,0.391,1.985,1.067,2.613,2.031
			c0.627,0.964,0.941,2.112,0.941,3.445c0,1.151-0.249,2.164-0.746,3.039c-0.498,0.875-1.144,1.521-1.938,1.938
			c-0.794,0.417-1.908,0.625-3.34,0.625H88.627z M89.729,102.648h1.328c1.588,0,2.69-0.099,3.305-0.297
			c0.864-0.281,1.544-0.787,2.039-1.518c0.495-0.731,0.742-1.625,0.742-2.682c0-1.108-0.269-2.056-0.805-2.842
			c-0.537-0.785-1.284-1.324-2.242-1.615c-0.719-0.219-1.904-0.328-3.555-0.328h-0.813V102.648z"/>
		<path fill="#FFFFFF" d="M100.541,92.242h6.586v1.125h-5.438v3.602h5.391v1.125h-5.391v4.516h5.391v1.125h-6.539V92.242z"/>
		<path fill="#FFFFFF" d="M113.541,92.242h1.148v10.383h4.422v1.109h-5.57V92.242z"/>
		<path fill="#FFFFFF" d="M126.404,91.953c1.74,0,3.197,0.581,4.37,1.742s1.759,2.591,1.759,4.289c0,1.683-0.585,3.109-1.755,4.281
			s-2.597,1.758-4.28,1.758c-1.704,0-3.143-0.583-4.315-1.75c-1.172-1.167-1.759-2.578-1.759-4.234c0-1.104,0.267-2.128,0.801-3.07
			s1.262-1.681,2.185-2.215C124.333,92.22,125.331,91.953,126.404,91.953z M126.455,93.07c-0.851,0-1.656,0.222-2.418,0.665
			c-0.762,0.442-1.356,1.04-1.784,1.79c-0.428,0.751-0.642,1.587-0.642,2.51c0,1.365,0.474,2.52,1.42,3.46
			c0.947,0.94,2.088,1.411,3.424,1.411c0.892,0,1.718-0.217,2.477-0.648c0.759-0.434,1.352-1.024,1.776-1.775
			c0.425-0.75,0.638-1.584,0.638-2.502c0-0.912-0.213-1.737-0.638-2.475s-1.024-1.328-1.796-1.771
			C128.14,93.292,127.321,93.07,126.455,93.07z"/>
		<path fill="#FFFFFF" d="M134.846,103.734V92.242h0.25l7.648,8.81v-8.81h1.133v11.492h-0.258l-7.586-8.702v8.702H134.846z"/>
		<path fill="#FFFFFF" d="M146.674,103.734V92.242h2.383c1.719,0,2.966,0.138,3.742,0.414c1.114,0.391,1.985,1.067,2.613,2.031
			s0.941,2.112,0.941,3.445c0,1.151-0.249,2.164-0.746,3.039s-1.144,1.521-1.938,1.938s-1.907,0.625-3.34,0.625H146.674z
			 M147.775,102.648h1.328c1.589,0,2.69-0.099,3.305-0.297c0.864-0.281,1.544-0.787,2.039-1.518
			c0.495-0.731,0.742-1.625,0.742-2.682c0-1.108-0.269-2.056-0.805-2.842c-0.536-0.785-1.284-1.324-2.242-1.615
			c-0.719-0.219-1.903-0.328-3.555-0.328h-0.813V102.648z"/>
		<path fill="#FFFFFF" d="M158.643,92.242h2.289c1.276,0,2.141,0.053,2.594,0.156c0.683,0.156,1.237,0.492,1.664,1.006
			s0.641,1.146,0.641,1.896c0,0.626-0.147,1.176-0.441,1.65s-0.715,0.833-1.262,1.076c-0.547,0.242-1.302,0.366-2.266,0.371
			l4.133,5.336h-1.421l-4.133-5.336h-0.649v5.336h-1.148V92.242z M159.791,93.367v3.906l1.979,0.016
			c0.767,0,1.334-0.072,1.702-0.219c0.368-0.146,0.654-0.379,0.861-0.699c0.205-0.32,0.309-0.678,0.309-1.074
			c0-0.386-0.104-0.735-0.313-1.051c-0.209-0.315-0.483-0.54-0.822-0.676s-0.902-0.203-1.69-0.203H159.791z"/>
		<path fill="#FFFFFF" d="M168.299,92.242h6.586v1.125h-5.438v3.602h5.391v1.125h-5.391v4.516h5.391v1.125h-6.539V92.242z"/>
		<path fill="#FFFFFF" d="M175.682,101.594l0.977-0.586c0.688,1.266,1.481,1.898,2.383,1.898c0.386,0,0.747-0.09,1.086-0.27
			s0.597-0.421,0.773-0.723s0.266-0.622,0.266-0.961c0-0.386-0.13-0.763-0.391-1.133c-0.359-0.511-1.016-1.125-1.969-1.844
			c-0.958-0.724-1.555-1.247-1.789-1.57c-0.406-0.542-0.609-1.128-0.609-1.758c0-0.5,0.12-0.956,0.359-1.367
			s0.577-0.735,1.012-0.973s0.907-0.355,1.418-0.355c0.542,0,1.048,0.134,1.52,0.402s0.97,0.762,1.496,1.48l-0.938,0.711
			c-0.433-0.573-0.801-0.95-1.105-1.133s-0.637-0.273-0.996-0.273c-0.464,0-0.843,0.141-1.137,0.422s-0.441,0.628-0.441,1.039
			c0,0.25,0.052,0.492,0.156,0.727s0.294,0.489,0.57,0.766c0.151,0.146,0.646,0.528,1.484,1.148
			c0.995,0.734,1.677,1.388,2.047,1.961s0.555,1.148,0.555,1.727c0,0.833-0.316,1.558-0.949,2.172s-1.402,0.922-2.309,0.922
			c-0.698,0-1.331-0.187-1.898-0.559S176.161,102.469,175.682,101.594z"/>
	</g>
</g>
</svg>
